<svg version="1.1" id="Layer_1" xmlns="http://www.w3.org/2000/svg" xmlns:xlink="http://www.w3.org/1999/xlink" x="0px" y="0px"
	 width="100%" viewBox="0 0 473 168" enable-background="new 0 0 473 168" xml:space="preserve">
<path fill="#010101" opacity="1.000000" stroke="none" 
	d="
M296.000000,169.000000 
	C198.666702,169.000000 101.833374,168.976791 5.000221,169.095612 
	C1.576322,169.099808 0.893732,168.425217 0.902666,164.999847 
	C1.041773,111.666901 1.041748,58.333366 0.902705,5.000418 
	C0.893776,1.575624 1.575824,0.902793 4.999900,0.905209 
	C159.999756,1.014569 314.999725,1.014554 469.999603,0.905278 
	C473.422607,0.902865 474.106293,1.574076 474.097382,4.999918 
	C473.958221,58.332867 473.958282,111.666397 474.097260,164.999344 
	C474.106171,168.423630 473.425934,169.105133 470.000183,169.097092 
	C412.167023,168.961395 354.333466,169.000000 296.000000,169.000000 
z"/>
<path fill="#FEFEFE" opacity="1.000000" stroke="none" 
	d="
M120.242714,79.746475 
	C120.907021,86.375519 119.232651,92.269630 116.158836,97.987167 
	C112.344093,105.082893 109.084785,112.475250 105.434921,119.662987 
	C104.542679,121.420090 104.495308,123.147873 104.494850,124.969116 
	C104.492889,132.794144 104.329765,140.624207 104.570168,148.441833 
	C104.674133,151.822556 103.477997,152.592010 100.312080,152.558655 
	C86.162018,152.409500 72.007141,152.350830 57.859325,152.583282 
	C53.751842,152.650757 53.230030,151.323441 53.867649,147.647125 
	C55.479103,138.356003 56.492344,128.960190 58.149715,119.678543 
	C58.614075,117.078049 58.097420,115.079979 56.783619,113.206528 
	C48.481709,101.368149 40.075390,89.603050 31.735304,77.791328 
	C29.671509,74.868462 29.123304,71.859665 31.223352,68.592560 
	C36.817974,59.888870 42.384872,51.165443 47.802429,42.351295 
	C49.033119,40.349010 50.685715,41.303123 52.588142,41.020836 
	C53.460899,40.655128 54.514877,41.873123 54.498291,40.211891 
	C56.907116,35.207336 59.518288,30.493008 61.878113,25.656054 
	C63.431709,22.471630 65.433090,21.352196 68.933571,22.615829 
	C72.367241,23.855343 75.530098,25.518620 78.510002,27.557768 
	C79.712166,28.380409 80.989517,29.344162 80.160934,31.574518 
	C80.398384,32.602383 80.908226,32.736851 81.803024,32.348785 
	C82.532791,31.199259 83.344261,30.682903 84.404213,30.602289 
	C88.447624,30.294760 97.890411,36.814968 99.545349,41.392494 
	C100.420731,45.098995 96.729820,46.406261 96.254227,49.376175 
	C96.213440,49.588337 95.987343,49.721775 95.987343,49.721775 
	C95.987343,49.721775 96.157951,49.879692 96.176666,49.695244 
	C97.116615,47.410599 98.841827,45.981632 100.725342,44.304863 
	C101.388641,44.229507 101.756790,44.287712 102.394241,44.426605 
	C104.398796,44.360546 105.422874,45.535896 106.720558,46.835945 
	C108.754745,48.698082 110.675934,50.214344 112.395439,51.932453 
	C114.922211,54.457184 116.301315,57.205990 112.115891,60.714085 
	C117.911949,60.396500 120.088356,64.458961 122.843666,67.326576 
	C124.863182,69.428413 125.703674,72.539612 122.276657,75.163925 
	C117.415962,79.832687 112.502556,84.057487 107.919952,89.139801 
	C107.581299,89.620148 107.449348,89.817108 107.082825,90.287849 
	C106.643753,90.692307 106.439255,90.822990 105.899307,91.100792 
	C101.497261,92.639877 98.781143,90.454422 96.652443,87.523529 
	C93.767090,83.550835 90.421951,80.242325 85.961746,78.083626 
	C82.865807,76.585220 82.141243,73.716377 82.035629,70.240562 
	C82.229591,68.980629 82.572968,68.130371 83.003738,66.961754 
	C83.243752,66.464691 83.358818,66.274368 83.724014,65.861603 
	C84.770538,65.169662 85.016258,64.295502 85.595078,63.413208 
	C85.706154,63.241909 85.981262,63.232689 85.981262,63.232689 
	C85.981262,63.232689 85.764641,63.064926 85.681213,63.260883 
	C85.068863,63.992245 84.790703,64.746002 83.784546,65.225807 
	C82.460922,64.843246 82.220818,63.963459 82.152962,62.638382 
	C82.578148,59.945606 83.486183,57.645271 82.481468,54.613056 
	C83.202545,57.386173 82.761879,59.459267 81.981247,61.846432 
	C79.128105,66.991318 74.610321,68.134445 69.566597,67.822945 
	C67.262993,67.680664 64.985847,67.028061 62.759911,66.323074 
	C60.783802,65.697220 59.608448,66.653137 58.779629,68.342377 
	C57.896919,70.141449 58.222687,71.577843 60.015533,72.545845 
	C72.220390,79.135551 79.570892,89.689774 84.325310,103.262825 
	C86.397484,99.622292 86.116234,96.258659 86.956429,93.218109 
	C88.272163,88.456650 89.119225,87.964531 93.503464,89.923088 
	C94.869308,90.533249 96.295776,91.088753 97.511497,91.933365 
	C101.340523,94.593544 104.588097,94.182938 107.543449,90.080704 
	C111.909081,86.518074 114.695381,81.600952 120.242714,79.746475 
z"/>
<path fill="#FCFCFC" opacity="1.000000" stroke="none" 
	d="
M299.939911,86.290802 
	C299.121521,80.773994 298.242432,75.712608 297.639404,70.618538 
	C297.407806,68.661896 296.535309,66.020599 299.884857,65.531227 
	C303.031525,65.071487 303.289459,67.368912 303.609558,69.575798 
	C304.628357,76.599617 305.654785,83.622345 307.548645,90.867928 
	C310.006165,84.576546 312.439117,78.275391 314.936157,71.999718 
	C315.688354,70.109215 315.843811,67.601486 318.746155,67.540779 
	C321.724548,67.478485 321.973022,70.115242 322.719727,71.953667 
	C325.315735,78.345146 327.694794,84.824738 330.643463,92.546318 
	C331.886841,83.948227 333.066467,76.719147 333.911865,69.451195 
	C334.215271,66.842941 334.955200,65.244270 337.771423,65.545158 
	C340.886261,65.877953 340.165009,68.426125 339.929260,70.180199 
	C338.405945,81.515465 336.650757,92.819519 335.118195,104.153633 
	C334.850464,106.133568 334.154175,107.248108 332.187256,107.474678 
	C330.081268,107.717239 329.455109,106.428413 328.786133,104.666046 
	C325.635651,96.365906 322.301941,88.135292 318.728424,79.109085 
	C315.301270,87.982262 312.156799,96.051994 309.077881,104.146652 
	C308.326874,106.121048 307.567993,107.770622 304.946594,107.514015 
	C302.265167,107.251541 302.459900,105.134659 302.210907,103.460297 
	C301.383575,97.897507 300.717377,92.310745 299.939911,86.290802 
z"/>
<path fill="#E9E9E9" opacity="1.000000" stroke="none" 
	d="
M421.418945,88.999100 
	C421.418945,82.510071 421.386902,76.520576 421.435577,70.531731 
	C421.453674,68.302338 420.818695,65.436966 424.452271,65.475243 
	C427.937744,65.511955 426.998444,68.316780 427.012512,70.284302 
	C427.076691,79.267700 427.139099,88.253517 426.984833,97.234718 
	C426.934082,100.188606 427.319336,101.568802 430.890259,101.524055 
	C440.932312,101.398216 447.012207,97.076721 447.941254,88.638710 
	C448.701202,81.736397 444.951447,72.549950 434.546417,71.484985 
	C432.618317,71.287636 431.418579,70.238457 431.603851,68.250389 
	C431.813965,65.995560 433.346527,65.407463 435.480408,65.385727 
	C443.823730,65.300751 452.316620,73.398216 453.502411,82.992050 
	C455.548401,99.545586 443.513550,108.631401 432.033478,107.753151 
	C421.467621,106.944839 421.418884,107.581879 421.418884,96.985481 
	C421.418884,94.489944 421.418915,91.994415 421.418945,88.999100 
z"/>
<path fill="#FBFBFB" opacity="1.000000" stroke="none" 
	d="
M211.680145,99.592087 
	C203.687347,108.853554 192.791687,110.253296 183.679962,103.434860 
	C174.939499,96.894249 172.832458,83.785019 179.029282,74.500145 
	C184.984711,65.576920 196.440796,62.819801 205.707748,68.079453 
	C216.256378,74.066551 218.989914,87.811508 211.680145,99.592087 
z"/>
<path fill="#EBEBEB" opacity="1.000000" stroke="none" 
	d="
M227.759491,94.740051 
	C230.084366,100.399994 233.912094,102.658875 239.101761,101.727432 
	C245.677429,100.547218 248.313156,97.757492 248.402390,91.509918 
	C248.504669,84.349541 248.326263,77.184135 248.498917,70.026443 
	C248.544785,68.124146 248.153976,65.408905 251.535141,65.427689 
	C254.841049,65.446068 254.577194,67.775238 254.575409,69.976250 
	C254.569839,76.804970 254.586578,83.633728 254.570389,90.462410 
	C254.545670,100.892273 248.915878,107.185982 239.291626,107.572716 
	C227.836151,108.033035 221.597565,102.715515 221.034927,91.426582 
	C220.670593,84.116341 220.953842,76.773209 220.972778,69.444885 
	C220.978241,67.329353 221.190109,65.399292 224.108749,65.410721 
	C227.077087,65.422348 226.998169,67.332405 227.064240,69.463608 
	C227.321457,77.759079 226.356186,86.081474 227.759491,94.740051 
z"/>
<path fill="#EEEEEE" opacity="1.000000" stroke="none" 
	d="
M268.323456,65.438309 
	C273.719849,65.965034 278.702911,64.431038 283.617310,65.806145 
	C289.695770,67.506973 292.222473,71.471504 291.553711,78.285599 
	C290.999298,83.934082 287.232971,87.571533 281.462708,88.024254 
	C281.131500,88.050232 280.794159,88.003624 280.463837,88.034973 
	C276.386108,88.422028 270.786591,86.132912 268.623596,88.975342 
	C266.602966,91.630661 268.085388,96.954208 268.033264,101.103447 
	C268.018646,102.269379 267.978302,103.438400 268.040924,104.601089 
	C268.138275,106.408478 267.425659,107.478691 265.536926,107.542206 
	C263.512970,107.610275 262.436646,106.690140 262.439026,104.578102 
	C262.452576,92.583946 262.443237,80.589775 262.448273,68.595604 
	C262.449982,64.469345 265.573151,65.663040 268.323456,65.438309 
z"/>
<path fill="#F3F3F3" opacity="1.000000" stroke="none" 
	d="
M390.985474,106.635948 
	C387.280701,108.374954 385.893066,107.259621 385.934479,103.476059 
	C386.058533,92.147827 386.065155,80.816292 385.922150,69.488503 
	C385.883667,66.441147 386.892883,65.351044 389.932343,65.404152 
	C394.413422,65.482445 398.900452,65.102631 403.385956,65.073929 
	C410.324097,65.029518 414.901123,69.385773 415.020905,75.986641 
	C415.160706,83.690552 411.292542,87.701141 403.756927,88.067368 
	C399.724579,88.263329 394.305328,86.122810 392.049683,89.149811 
	C390.120941,91.738083 391.607483,96.851685 391.528992,100.847252 
	C391.493225,102.666481 391.326111,104.483139 390.985474,106.635948 
z"/>
<path fill="#EBEBEB" opacity="1.000000" stroke="none" 
	d="
M151.037308,101.761230 
	C151.037170,102.725487 151.038666,103.224556 151.036606,103.723610 
	C151.027893,105.836868 150.771393,107.824570 148.060776,108.012337 
	C144.931396,108.229126 144.545303,105.763618 144.509018,103.689308 
	C144.354736,94.875237 144.451752,86.057014 144.421539,77.240440 
	C144.371231,62.556011 144.161972,65.746666 156.002213,65.439087 
	C159.327026,65.352715 162.656723,65.469582 165.982803,65.412292 
	C168.107239,65.375717 169.661530,65.948074 169.542999,68.414032 
	C169.436356,70.632858 168.143280,71.607384 165.939255,71.583038 
	C162.113617,71.540779 158.284119,71.665779 154.462143,71.540504 
	C152.128525,71.464020 150.995270,71.790260 150.940765,74.692772 
	C150.766602,83.965759 150.602402,83.962410 159.753235,83.962860 
	C162.082184,83.962975 164.411118,83.963928 166.740067,83.967094 
	C169.008713,83.970169 170.042603,85.137016 170.041092,87.375267 
	C170.039536,89.663933 168.632019,90.065956 166.746140,90.048553 
	C162.587646,90.010170 158.419647,90.202385 154.272934,89.978142 
	C151.606873,89.833977 150.784225,90.726799 150.990738,93.314827 
	C151.201782,95.959625 151.037369,98.634392 151.037308,101.761230 
z"/>
<path fill="#ECECEC" opacity="1.000000" stroke="none" 
	d="
M362.414520,74.925072 
	C363.145111,72.762550 361.023560,71.086327 360.985992,69.045708 
	C360.956268,67.426399 360.555176,65.480560 362.816956,65.042671 
	C364.532349,64.710564 365.495544,65.785133 366.053711,67.405502 
	C370.083954,79.105377 374.200104,90.775833 378.182312,102.491882 
	C378.804382,104.322044 379.424622,106.699730 376.627502,107.389214 
	C373.802765,108.085503 373.626984,105.621162 372.980194,103.772263 
	C369.603577,94.119308 366.184570,84.481194 362.414520,74.925072 
z"/>
<path fill="#EBEBEB" opacity="1.000000" stroke="none" 
	d="
M361.999878,74.980225 
	C360.501068,85.690353 355.774475,95.445755 352.668304,105.690323 
	C352.176239,107.313210 350.684052,107.965057 349.026825,107.315994 
	C347.553070,106.738792 347.194122,105.386322 347.652893,104.012482 
	C350.693542,94.906868 353.735992,85.800674 356.926819,76.747177 
	C357.736389,74.450127 359.613861,74.647301 361.752319,75.347336 
	C362.048767,75.012215 362.005127,75.001724 361.999878,74.980225 
z"/>
<path fill="#EEEEEE" opacity="1.000000" stroke="none" 
	d="
M279.832733,100.174408 
	C278.461792,98.488495 277.294373,97.091446 276.233307,95.617828 
	C275.154755,94.119896 274.874084,92.330360 276.310181,91.093567 
	C277.681763,89.912315 279.540253,90.043777 280.803802,91.506927 
	C284.058716,95.276054 287.213501,99.132225 290.376770,102.979515 
	C291.608856,104.477982 291.019806,105.948692 289.744751,106.902489 
	C288.285889,107.993759 286.546722,107.961205 285.230438,106.509995 
	C283.447388,104.544189 281.792694,102.461945 279.832733,100.174408 
z"/>
<path fill="#F0F0F0" opacity="1.000000" stroke="none" 
	d="
M406.836792,104.178833 
	C404.364777,101.251259 402.092804,98.622276 399.948456,95.892998 
	C398.751740,94.369865 398.100922,92.461166 399.856995,91.049835 
	C401.531952,89.703690 403.332916,90.359131 404.683075,91.947220 
	C407.158417,94.858727 409.582947,97.813416 412.055542,100.727272 
	C413.666199,102.625389 416.039917,104.718338 413.090851,106.936325 
	C410.314972,109.024040 408.636108,106.417534 406.836792,104.178833 
z"/>
<path fill="#626262" opacity="1.000000" stroke="none" 
	d="
M106.802887,89.879974 
	C105.795311,88.513298 106.481056,88.034073 107.130936,87.487190 
	C111.987679,83.400139 116.831474,79.297699 121.992317,75.391136 
	C121.625313,76.781105 120.465431,77.809692 120.758865,79.663277 
	C116.149300,80.384224 114.958466,84.833961 111.900536,87.005547 
	C110.757187,87.817482 110.438835,89.557861 108.524017,90.015038 
	C107.840225,90.115799 107.495911,90.198128 106.802887,89.879974 
z"/>
<path fill="#626262" opacity="1.000000" stroke="none" 
	d="
M96.379829,49.808582 
	C94.568817,46.390400 98.403145,45.005154 99.373215,42.075481 
	C100.527985,42.011051 100.727631,42.785480 100.959206,43.876266 
	C100.470833,46.720688 98.386436,48.053864 96.379829,49.808582 
z"/>
<path fill="#626262" opacity="1.000000" stroke="none" 
	d="
M54.159286,39.951111 
	C54.868462,40.075737 55.403336,40.065662 55.786293,40.301876 
	C56.726238,40.881653 58.827278,40.755180 57.902424,42.660419 
	C57.209377,44.088131 56.040279,42.847137 55.118141,42.498131 
	C54.525223,42.273724 53.966728,41.958363 53.195541,41.361412 
	C53.304138,40.668854 53.609997,40.298660 54.159286,39.951111 
z"/>
<path fill="#626262" opacity="1.000000" stroke="none" 
	d="
M106.857643,46.721210 
	C105.653145,46.381557 104.382545,45.671558 102.887741,44.734428 
	C104.668961,43.712448 106.113846,44.172749 106.857643,46.721210 
z"/>
<path fill="#F4F4F4" opacity="1.000000" stroke="none" 
	d="
M81.721207,32.214520 
	C81.928772,33.188538 81.551933,34.002193 80.357216,33.888409 
	C79.354584,33.792923 79.090279,33.206200 79.815918,32.137802 
	C80.511673,32.061584 80.948959,32.154987 81.721207,32.214520 
z"/>
<path fill="#141414" opacity="1.000000" stroke="none" 
	d="
M106.328575,89.482697 
	C106.769180,89.488678 107.084198,89.497864 107.791870,89.770256 
	C104.305260,96.098091 103.869949,96.204620 97.070190,92.753166 
	C89.020477,88.667244 89.086479,88.682434 87.077911,97.409157 
	C86.430489,100.222061 87.059860,103.464691 84.428772,105.923714 
	C82.153999,101.397789 81.080841,96.519585 78.667152,92.171837 
	C73.989479,83.745987 67.568527,77.191368 58.964222,72.860619 
	C57.105862,71.925262 55.666859,71.076431 57.320904,68.946075 
	C58.673965,67.203377 58.294292,63.343227 62.570236,65.054138 
	C68.925591,67.597069 75.152969,67.886482 80.508957,61.991722 
	C81.214340,61.459026 81.776382,61.404400 82.716522,61.768265 
	C83.157341,63.047218 82.342010,64.093483 83.500244,65.177765 
	C84.061356,65.337769 84.218018,65.450363 84.182121,65.778976 
	C83.989563,65.994995 83.757271,65.746475 83.596611,65.802307 
	C83.626022,66.815376 83.045029,67.534554 82.485092,68.589844 
	C82.367744,72.703300 83.490089,75.523521 87.479630,77.376266 
	C91.482323,79.235123 94.677147,82.408379 97.221649,86.306587 
	C98.936623,88.933945 101.123726,92.284897 105.761673,89.896469 
	C106.099403,89.714813 106.202988,89.485901 106.328575,89.482697 
z"/>
<path fill="#282828" opacity="1.000000" stroke="none" 
	d="
M79.769073,122.404114 
	C83.448814,122.128540 86.905296,122.128540 90.361778,122.128540 
	C83.840919,125.416084 85.142159,132.535339 82.456917,138.228500 
	C80.939072,133.403824 83.435196,128.571640 80.254921,124.252258 
	C79.672531,123.589325 79.514603,123.172943 79.769073,122.404114 
z"/>
<path fill="#FBFBFB" opacity="1.000000" stroke="none" 
	d="
M108.149368,68.267159 
	C106.826942,68.982956 105.781425,69.357697 104.603363,68.412506 
	C106.299110,65.272926 109.236855,63.799938 112.900139,61.621738 
	C112.249290,65.221817 109.845398,66.288300 108.149368,68.267159 
z"/>
<path fill="#626262" opacity="1.000000" stroke="none" 
	d="
M83.395020,61.764420 
	C82.536087,61.979782 81.995094,61.953243 81.061981,61.810463 
	C81.126640,58.830578 84.691116,55.451092 77.929314,53.763245 
	C82.595985,53.063942 83.291000,53.246845 83.719452,55.676601 
	C84.052628,57.566109 83.739082,59.569653 83.395020,61.764420 
z"/>
<path fill="#BFBFBF" opacity="1.000000" stroke="none" 
	d="
M102.472710,73.523468 
	C101.631096,77.452873 97.918701,78.211105 94.894028,81.246536 
	C95.768837,76.105553 99.136635,74.828957 102.472710,73.523468 
z"/>
<path fill="#626262" opacity="1.000000" stroke="none" 
	d="
M67.305687,48.036873 
	C64.331032,46.880947 61.610592,45.631088 57.920204,43.935600 
	C62.500931,42.863914 65.228371,44.277893 67.944084,46.731316 
	C68.032555,47.406807 67.837898,47.701511 67.305687,48.036873 
z"/>
<path fill="#F8F8F8" opacity="1.000000" stroke="none" 
	d="
M96.032196,49.946152 
	C95.861427,51.104076 96.384804,52.777252 94.313240,52.773193 
	C93.957504,52.772499 93.369385,52.294102 93.287231,51.943089 
	C92.889801,50.244961 94.117790,50.086418 95.715408,49.960747 
	C96.098129,49.945240 96.009575,49.990410 96.032196,49.946152 
z"/>
<path fill="#F8F8F8" opacity="1.000000" stroke="none" 
	d="
M86.360672,62.928524 
	C86.080727,61.831062 85.756310,60.483280 87.254730,60.176796 
	C87.868172,60.051323 88.620255,60.199402 88.624313,61.056278 
	C88.629662,62.185513 87.765816,62.643303 86.360672,62.928524 
z"/>
<path fill="#F8F8F8" opacity="1.000000" stroke="none" 
	d="
M90.690369,57.615822 
	C88.721581,57.237545 89.109909,56.549343 90.347885,56.095757 
	C91.009430,55.853367 92.107590,55.087223 92.498604,55.980167 
	C92.879684,56.850414 91.603691,57.076756 90.690369,57.615822 
z"/>
<path fill="#F4F4F4" opacity="1.000000" stroke="none" 
	d="
M74.043900,43.622803 
	C72.686592,42.142174 73.892914,41.347862 74.992226,39.993389 
	C75.513336,41.607502 75.158089,42.636917 74.043900,43.622803 
z"/>
<path fill="#F4F4F4" opacity="1.000000" stroke="none" 
	d="
M78.054764,37.284142 
	C77.792992,38.250492 77.126862,39.021156 76.727524,38.464077 
	C75.785599,37.150074 76.645569,35.862133 77.900299,35.509144 
	C78.631760,35.303360 78.199028,36.429409 78.054764,37.284142 
z"/>
<path fill="#F8F8F8" opacity="1.000000" stroke="none" 
	d="
M84.331360,65.957550 
	C83.989563,65.994995 83.738419,65.633095 83.821556,65.429138 
	C84.002525,64.295685 84.166618,63.406342 85.545532,62.958488 
	C85.871727,62.861557 86.023987,63.011913 86.107460,63.080784 
	C85.939934,64.212799 86.178665,65.544235 84.331360,65.957550 
z"/>
<path fill="#626262" opacity="1.000000" stroke="none" 
	d="
M79.873466,121.805069 
	C80.042313,122.525871 80.092300,122.923203 80.095528,123.618744 
	C79.085693,123.092773 77.256393,122.848640 77.613731,121.154655 
	C77.724945,120.627426 79.063972,120.978127 79.873466,121.805069 
z"/>
<path fill="#626262" opacity="1.000000" stroke="none" 
	d="
M82.657639,68.732864 
	C81.668915,67.723045 82.959915,67.097084 83.227768,66.000290 
	C84.073097,66.890907 83.921555,67.804596 82.657639,68.732864 
z"/>
<path fill="#F4F4F4" opacity="1.000000" stroke="none" 
	d="
M67.204742,48.346703 
	C67.238586,47.829342 67.425697,47.527878 67.871643,47.138344 
	C68.710510,47.405888 69.027519,47.920055 68.527367,48.474072 
	C68.337662,48.684208 67.759254,48.543434 67.204742,48.346703 
z"/>
<path fill="#F4F4F4" opacity="1.000000" stroke="none" 
	d="
M72.158127,45.265953 
	C72.518723,45.563648 72.644867,45.831264 72.771019,46.098877 
	C72.515144,46.176586 72.160522,46.398842 72.022255,46.304394 
	C71.636093,46.040588 71.279205,45.650055 72.158127,45.265953 
z"/>
<path fill="#F8F8F8" opacity="1.000000" stroke="none" 
	d="
M91.464706,53.438904 
	C91.532036,53.397316 91.397369,53.480488 91.464706,53.438904 
z"/>
<path fill="#626262" opacity="1.000000" stroke="none" 
	d="
M106.105545,89.755463 
	C106.099403,89.714813 106.268410,90.111534 106.268410,90.111534 
	C106.268410,90.111534 106.158775,90.002083 106.118317,89.856369 
	C106.077850,89.710655 106.111679,89.796104 106.105545,89.755463 
z"/>
<path fill="#060606" opacity="1.000000" stroke="none" 
	d="
M209.087494,91.742355 
	C205.028366,99.903503 198.830658,103.092072 191.726334,100.990921 
	C185.542099,99.161896 181.069580,92.471504 181.490051,85.678566 
	C181.952423,78.208382 187.190292,72.495262 194.396149,71.601440 
	C204.388290,70.362000 211.993271,80.508522 209.087494,91.742355 
z"/>
<path fill="#0F0F0F" opacity="1.000000" stroke="none" 
	d="
M272.050354,81.995789 
	C265.068237,82.445877 268.857239,77.500267 268.091675,75.060020 
	C267.274719,72.456055 268.534241,71.206017 271.472168,71.453056 
	C274.605988,71.716599 277.783539,71.416222 280.930725,71.579323 
	C283.578766,71.716545 285.368469,73.254547 285.371246,75.958611 
	C285.373932,78.542084 284.582092,81.046829 281.432251,81.412979 
	C278.479218,81.756256 275.492859,81.812981 272.050354,81.995789 
z"/>
<path fill="#141414" opacity="1.000000" stroke="none" 
	d="
M407.274811,72.576088 
	C410.154755,78.214783 408.770874,81.028839 403.036377,81.796089 
	C401.073181,82.058769 399.033142,81.765831 397.076416,82.053986 
	C392.635803,82.707916 391.172760,81.195938 391.277802,76.516640 
	C391.372375,72.303024 392.543732,70.892746 396.635101,71.416542 
	C400.062042,71.855270 403.624512,70.840065 407.274811,72.576088 
z"/>
</svg>