<svg version="1.1" id="Layer_1" xmlns="http://www.w3.org/2000/svg" xmlns:xlink="http://www.w3.org/1999/xlink" x="0px" y="0px"
	 width="100%" viewBox="0 0 473 168" enable-background="new 0 0 473 168" xml:space="preserve">
<path fill="#FEFEFE" opacity="1.000000" stroke="none" 
	d="
M298.000000,169.000000 
	C200.000031,169.000000 102.500038,168.976944 5.000221,169.095581 
	C1.576330,169.099747 0.893732,168.425217 0.902666,164.999847 
	C1.041773,111.666901 1.041748,58.333366 0.902705,5.000418 
	C0.893776,1.575626 1.575823,0.902793 4.999899,0.905209 
	C159.999756,1.014569 314.999725,1.014554 469.999603,0.905278 
	C473.422607,0.902865 474.106293,1.574075 474.097382,4.999918 
	C473.958221,58.332867 473.958282,111.666397 474.097260,164.999344 
	C474.106171,168.423630 473.425964,169.105286 470.000153,169.097122 
	C412.833679,168.960953 355.666809,169.000000 298.000000,169.000000 
z"/>
<path fill="#040404" opacity="1.000000" stroke="none" 
	d="
M42.404305,91.604218 
	C38.846504,86.546814 35.610523,81.698784 32.131588,77.031860 
	C29.942553,74.095322 29.793856,71.502914 31.869652,68.407379 
	C37.241970,60.395901 42.515453,52.313259 47.613327,44.125126 
	C49.557373,41.002625 51.601902,40.846497 54.639172,42.353703 
	C62.676189,46.341991 70.735634,50.304546 78.942711,53.922146 
	C82.804764,55.624496 82.359039,57.782570 80.666649,60.560005 
	C77.476700,65.795151 70.996750,67.454308 63.775951,65.125206 
	C62.347828,64.664566 60.695171,62.625023 59.307617,64.385590 
	C57.798721,66.300133 56.877205,68.714020 55.902515,70.996834 
	C55.457115,72.039993 56.704132,72.326408 57.355011,72.633629 
	C72.034050,79.562263 79.800804,91.848328 84.044945,106.898521 
	C84.155975,107.292282 84.593842,107.593872 85.526764,108.720062 
	C86.891304,101.961540 88.109940,95.925697 89.364494,89.711937 
	C93.211937,90.554146 96.443146,92.664825 99.682037,94.544670 
	C102.559181,96.214554 104.218750,95.651894 106.383148,93.345970 
	C110.553978,88.902428 115.109451,84.819923 119.668861,80.430405 
	C120.320724,84.934433 119.644249,89.193176 117.690392,93.281433 
	C117.332298,94.030731 117.004463,94.804092 116.560570,95.501350 
	C106.348900,111.541603 101.386391,128.849243 103.967384,147.946686 
	C104.432518,151.388260 102.923538,152.020920 99.798019,151.986359 
	C85.809235,151.831711 71.815964,151.797165 57.828529,152.004028 
	C54.297596,152.056244 53.706379,150.990158 54.261875,147.776627 
	C55.904289,138.275269 57.243279,128.721893 58.789268,119.203201 
	C59.185379,116.764328 58.781292,114.787758 57.267605,112.713806 
	C52.265728,105.860519 47.487450,98.844040 42.404305,91.604218 
z"/>
<path fill="#0B0B0B" opacity="1.000000" stroke="none" 
	d="
M323.961914,87.128769 
	C322.270203,82.789757 320.680573,78.825951 318.711975,73.917137 
	C315.255432,82.852661 312.167114,90.812500 309.100342,98.780617 
	C308.324921,100.795349 307.836090,103.262909 304.960175,102.901924 
	C302.178314,102.552750 302.653046,99.875572 302.388397,98.104767 
	C300.789856,87.409294 299.367310,76.687325 297.919128,65.969719 
	C297.652435,63.995964 297.154480,61.673172 300.006622,61.217442 
	C302.915894,60.752583 303.027161,63.088619 303.321838,65.093513 
	C304.399994,72.429146 305.486328,79.763565 307.537292,87.238953 
	C310.131927,80.548058 312.708801,73.850189 315.333649,67.171181 
	C315.987030,65.508644 316.409637,63.359470 318.699677,63.356792 
	C320.901703,63.354214 321.513123,65.249504 322.192505,67.028404 
	C324.838928,73.957787 327.582031,80.850250 330.789429,89.032600 
	C331.994019,80.284370 333.007294,72.926285 334.020233,65.568153 
	C334.317474,63.409126 334.398285,60.756420 337.508698,61.251160 
	C340.531860,61.732029 339.937714,64.236488 339.618683,66.436409 
	C338.066620,77.138351 336.526764,87.842270 335.053436,98.555229 
	C334.793152,100.447868 334.630432,102.485039 332.451019,102.875183 
	C330.158234,103.285599 329.474426,101.348106 328.798798,99.556786 
	C327.275574,95.518425 325.648712,91.519150 323.961914,87.128769 
z"/>
<path fill="#0D0D0D" opacity="1.000000" stroke="none" 
	d="
M187.255615,100.961922 
	C178.382385,95.790199 174.720886,88.253281 176.084869,78.560646 
	C177.191483,70.696922 181.809814,65.149040 189.182983,62.295406 
	C197.060562,59.246548 205.653275,61.953686 211.093704,68.737106 
	C216.704056,75.732407 217.244034,85.897934 212.407486,93.470390 
	C207.583252,101.023621 199.351944,104.384766 190.897247,102.218056 
	C189.779877,101.931709 188.706238,101.474670 187.255615,100.961922 
z"/>
<path fill="#0D0D0D" opacity="1.000000" stroke="none" 
	d="
M447.130829,87.689522 
	C449.948303,76.469841 445.695343,69.266518 435.069550,66.876892 
	C433.014252,66.414665 431.510895,65.714592 431.941620,63.335037 
	C432.389984,60.858177 434.321991,60.932957 436.229858,61.145885 
	C446.001953,62.236534 453.425018,71.565010 453.247955,82.525230 
	C453.070801,93.491875 445.398529,102.230156 435.288940,102.979485 
	C421.695435,103.987045 421.695404,103.987053 421.695404,90.572174 
	C421.695404,83.075996 421.560669,75.576027 421.771606,68.085785 
	C421.841400,65.608238 420.136017,61.203354 424.372650,61.356110 
	C428.242279,61.495632 426.756439,65.808281 426.806915,68.383568 
	C426.966766,76.542938 427.131195,84.719727 426.753113,92.864677 
	C426.566559,96.883385 428.028809,97.332886 431.517151,97.395729 
	C438.809021,97.527077 444.097534,94.930779 447.130829,87.689522 
z"/>
<path fill="#050505" opacity="1.000000" stroke="none" 
	d="
M102.066154,44.805397 
	C103.323570,45.263634 104.266632,45.619930 105.069283,46.178127 
	C115.907158,53.715187 116.128868,55.613342 107.420135,65.150238 
	C103.503944,69.438843 99.481499,73.642540 95.782639,78.112633 
	C93.794319,80.515533 92.285622,80.303490 90.015160,78.617020 
	C81.550667,72.329704 81.323425,71.667030 87.583351,63.360214 
	C92.259712,57.154762 96.370308,50.516331 102.066154,44.805397 
z"/>
<path fill="#0E0E0E" opacity="1.000000" stroke="none" 
	d="
M227.823883,100.341499 
	C222.780533,96.593040 221.545807,91.447052 221.376358,86.019096 
	C221.163635,79.204643 221.311203,72.378441 221.335754,65.557419 
	C221.342941,63.560658 221.162018,61.153599 224.019714,61.120758 
	C227.249374,61.083641 226.874222,63.709427 226.882690,65.846909 
	C226.909683,72.667854 226.803009,79.490982 226.940720,86.309380 
	C227.091156,93.757919 230.742386,97.647072 237.282867,97.651764 
	C244.611130,97.657021 248.741180,93.733589 248.906662,86.316124 
	C249.051331,79.830887 248.860062,73.338097 249.009415,66.853073 
	C249.060211,64.647827 247.744278,61.062775 251.734543,61.188522 
	C255.673996,61.312668 254.143570,64.901031 254.214569,67.078400 
	C254.404236,72.895119 254.294495,78.722130 254.276489,84.544975 
	C254.228500,100.060966 242.083710,107.499229 227.823883,100.341499 
z"/>
<path fill="#080808" opacity="1.000000" stroke="none" 
	d="
M286.153351,62.518486 
	C291.035126,66.324081 292.480225,70.984039 290.698975,76.355972 
	C289.194244,80.893929 285.629852,83.060097 279.731293,83.157051 
	C275.957275,83.219078 271.034668,81.494911 268.728333,83.844284 
	C266.431335,86.184105 268.212799,91.100456 268.017487,94.880730 
	C267.974640,95.709946 268.074219,96.549019 267.999054,97.373589 
	C267.803711,99.515625 268.926849,102.732048 265.409576,102.777328 
	C261.528503,102.827301 262.557434,99.380882 262.530243,97.105667 
	C262.428986,88.626289 262.460114,80.144844 262.496826,71.664421 
	C262.551361,59.079060 261.381531,61.163685 273.055511,61.058487 
	C277.337708,61.019897 281.724823,60.328735 286.153351,62.518486 
z"/>
<path fill="#080808" opacity="1.000000" stroke="none" 
	d="
M385.988037,70.099106 
	C385.988007,68.618179 386.102478,67.606247 385.968231,66.628471 
	C385.370392,62.274700 387.136841,60.591183 391.556305,60.957462 
	C395.347748,61.271687 399.188477,60.950539 403.006409,60.994461 
	C410.465576,61.080273 415.051147,65.367661 414.927704,72.066383 
	C414.795319,79.250427 410.693787,83.054771 403.141937,83.166855 
	C399.366577,83.222893 394.225464,81.428001 392.203674,83.931686 
	C390.303925,86.284271 391.605011,91.228554 391.516083,95.032936 
	C391.481171,96.526512 391.531372,98.022499 391.479248,99.515160 
	C391.416046,101.324104 390.913544,102.927536 388.703857,102.861626 
	C386.610596,102.799187 385.979462,101.381416 385.985474,99.473892 
	C386.006866,92.666527 385.989960,85.859039 385.988129,79.051598 
	C385.987396,76.229004 385.988037,73.406403 385.988037,70.099106 
z"/>
<path fill="#0B0B0B" opacity="1.000000" stroke="none" 
	d="
M145.051514,89.973907 
	C145.051559,81.646179 145.160187,73.811020 145.003708,65.981155 
	C144.930634,62.324726 146.325211,60.842690 150.000671,60.974373 
	C154.994049,61.153286 159.999130,61.060249 164.998184,60.999516 
	C167.138214,60.973518 169.411972,61.121590 169.500458,63.707676 
	C169.601974,66.674904 167.129791,66.808380 164.844574,66.790977 
	C161.344940,66.764336 157.838882,66.909828 154.347168,66.741394 
	C151.923828,66.624496 150.907181,67.105888 150.839478,69.920425 
	C150.599762,79.883705 150.464981,79.880096 160.562607,79.880890 
	C162.562515,79.881050 164.562485,79.897034 166.562302,79.884117 
	C168.444458,79.871964 169.924271,80.484177 169.993652,82.596535 
	C170.065750,84.792130 168.507095,85.384392 166.660080,85.399857 
	C162.493866,85.434753 158.318802,85.582344 154.163803,85.366692 
	C151.446899,85.225677 150.733536,86.241463 150.878799,88.780174 
	C151.068893,92.102440 150.910141,95.443947 150.928909,98.777023 
	C150.940872,100.900246 150.749771,103.052673 148.048447,103.149963 
	C145.270920,103.250008 145.033417,101.115273 145.048050,98.968224 
	C145.067368,96.135147 145.051987,93.301849 145.051514,89.973907 
z"/>
<path fill="#070707" opacity="1.000000" stroke="none" 
	d="
M78.773315,38.742622 
	C84.451286,29.209223 84.718811,29.153404 93.721306,35.344177 
	C100.411133,39.944588 100.459435,40.195332 95.884155,46.812592 
	C92.074036,52.323189 88.260788,57.831635 84.144203,63.115261 
	C85.145393,55.046543 84.875748,53.822159 78.449066,50.998955 
	C73.796165,48.954964 72.798050,46.779621 76.219467,42.854248 
	C77.186493,41.744781 77.807571,40.333790 78.773315,38.742622 
z"/>
<path fill="#070707" opacity="1.000000" stroke="none" 
	d="
M99.118530,78.243576 
	C103.947861,72.913780 108.614464,67.926979 113.092613,62.776321 
	C114.804909,60.806881 116.197556,60.556961 117.925148,62.531822 
	C118.582397,63.283146 119.316154,63.968277 119.962646,64.728157 
	C125.217728,70.904945 125.192909,71.173752 119.244522,76.483360 
	C114.896713,80.364258 110.333534,84.039352 106.296608,88.221497 
	C103.241142,91.386864 101.292725,90.164421 98.992439,87.630966 
	C96.760338,85.172585 93.655975,82.949409 97.863152,79.617096 
	C98.249352,79.311195 98.543686,78.889297 99.118530,78.243576 
z"/>
<path fill="#070707" opacity="1.000000" stroke="none" 
	d="
M62.365067,26.404842 
	C63.671070,22.628326 66.003242,21.965916 69.168785,23.227066 
	C69.786064,23.472990 70.398361,23.731533 71.011742,23.987160 
	C80.962753,28.134214 81.335953,29.256140 75.795349,38.364090 
	C70.572388,46.949879 70.572388,46.949875 61.589687,42.699417 
	C55.028248,39.594654 55.030720,39.596031 58.556923,33.258869 
	C59.769012,31.080534 60.965340,28.893429 62.365067,26.404842 
z"/>
<path fill="#0E0E0E" opacity="1.000000" stroke="none" 
	d="
M365.000214,61.783966 
	C369.315796,73.868675 373.452942,85.596497 377.559235,97.335106 
	C378.215851,99.212059 379.211151,101.600327 376.791779,102.591515 
	C373.993896,103.737778 373.684387,100.855270 373.083923,99.149651 
	C369.173584,88.042435 365.348358,76.905060 361.537445,65.763145 
	C360.527405,62.810139 360.275024,60.268627 365.000214,61.783966 
z"/>
<path fill="#0E0E0E" opacity="1.000000" stroke="none" 
	d="
M353.772858,81.681747 
	C354.856354,78.492393 355.838654,75.686455 356.773193,72.864700 
	C357.252228,71.418251 358.084351,70.531296 359.700043,70.932404 
	C361.427277,71.361221 361.589417,72.844780 361.180817,74.096832 
	C358.209045,83.203362 355.147461,92.281021 352.037720,101.341515 
	C351.647614,102.478088 350.668365,103.363075 349.300995,102.745514 
	C347.313599,101.847916 347.519104,100.073814 348.046631,98.469345 
	C349.852051,92.978394 351.774261,87.525833 353.772858,81.681747 
z"/>
<path fill="#101010" opacity="1.000000" stroke="none" 
	d="
M288.572296,102.776505 
	C282.335266,100.344612 279.848938,94.483810 275.959686,89.989708 
	C275.109711,89.007530 275.476410,87.410263 276.839203,86.552086 
	C278.181763,85.706657 279.475555,86.077377 280.409210,87.150414 
	C283.657196,90.883179 286.864471,94.654266 289.982727,98.495621 
	C291.364868,100.198265 290.361908,101.537842 288.572296,102.776505 
z"/>
<path fill="#0F0F0F" opacity="1.000000" stroke="none" 
	d="
M409.877625,94.144165 
	C411.166901,95.687744 412.255798,96.931427 413.290192,98.218925 
	C414.383209,99.579445 414.401825,100.883286 413.030151,102.130859 
	C411.616608,103.416519 410.317139,103.179031 409.175079,101.853600 
	C406.048950,98.225555 402.946503,94.576294 399.890778,90.888924 
	C398.852844,89.636459 398.489655,88.201683 399.884460,86.927055 
	C401.473450,85.474937 402.958221,86.073212 404.189728,87.451927 
	C406.059814,89.545464 407.836792,91.722160 409.877625,94.144165 
z"/>
<path fill="#EEEEEE" opacity="1.000000" stroke="none" 
	d="
M84.784042,134.772461 
	C84.151649,137.347946 84.022789,139.637085 82.412117,142.179184 
	C80.914490,134.293335 84.404732,125.096237 75.072952,120.081596 
	C80.676659,121.892021 86.118523,122.500084 91.975571,122.268074 
	C86.989532,124.958405 84.789955,129.019897 84.784042,134.772461 
z"/>
<path fill="#FCFCFC" opacity="1.000000" stroke="none" 
	d="
M210.154755,81.999908 
	C209.517410,89.917542 205.370850,95.417282 199.276917,96.858376 
	C192.859131,98.376053 186.355331,95.508415 183.137344,89.742210 
	C179.760452,83.691238 180.685699,76.228722 185.485138,71.292839 
	C189.578720,67.082870 194.620926,65.687653 200.079086,67.598785 
	C206.485229,69.841843 209.931427,74.650459 210.154755,81.999908 
z"/>
<path fill="#F6F6F6" opacity="1.000000" stroke="none" 
	d="
M268.002991,75.672890 
	C267.993622,66.467537 267.993805,66.456993 276.844879,66.603294 
	C278.333435,66.627892 279.845276,66.647369 281.302216,66.912216 
	C285.563507,67.686798 287.164185,72.297829 284.386230,75.615440 
	C282.092590,78.354652 271.169617,78.704781 268.002991,75.672890 
z"/>
<path fill="#F1F1F1" opacity="1.000000" stroke="none" 
	d="
M407.232605,76.293877 
	C402.634399,78.450272 398.101044,77.518929 393.669891,77.750259 
	C391.823517,77.846657 391.445984,76.755318 391.456818,75.244354 
	C391.471039,73.255867 391.566986,71.259377 391.426453,69.280624 
	C391.262177,66.967216 392.423340,66.463058 394.427917,66.546936 
	C397.240356,66.664604 400.069489,66.478836 402.873901,66.674385 
	C409.126282,67.110359 410.615997,70.174088 407.232605,76.293877 
z"/>
</svg>